<mxfile host="app.diagrams.net" modified="2021-08-23T05:49:18.606Z" agent="5.0 (Windows NT 6.1; Win64; x64) AppleWebKit/537.36 (KHTML, like Gecko) Chrome/92.0.4515.159 Safari/537.36" etag="eaxsTMlOpxEUtp4xRfWd" version="14.9.4" type="github">
  <diagram id="YmTmdFHc6FyqDe_sH9pm" name="Page-1">
    <mxGraphModel dx="981" dy="576" grid="1" gridSize="10" guides="1" tooltips="1" connect="1" arrows="1" fold="1" page="1" pageScale="1" pageWidth="827" pageHeight="1169" math="0" shadow="0">
      <root>
        <mxCell id="0" />
        <mxCell id="1" parent="0" />
        <mxCell id="XluoGH8vRkax0UuYclkj-3" value="" style="edgeStyle=orthogonalEdgeStyle;rounded=0;orthogonalLoop=1;jettySize=auto;html=1;" parent="1" source="XluoGH8vRkax0UuYclkj-1" target="XluoGH8vRkax0UuYclkj-2" edge="1">
          <mxGeometry relative="1" as="geometry" />
        </mxCell>
        <mxCell id="XluoGH8vRkax0UuYclkj-1" value="mpc" style="whiteSpace=wrap;html=1;" parent="1" vertex="1">
          <mxGeometry x="210" y="130" width="120" height="60" as="geometry" />
        </mxCell>
        <mxCell id="XluoGH8vRkax0UuYclkj-5" value="" style="edgeStyle=orthogonalEdgeStyle;rounded=0;orthogonalLoop=1;jettySize=auto;html=1;" parent="1" source="XluoGH8vRkax0UuYclkj-2" target="XluoGH8vRkax0UuYclkj-4" edge="1">
          <mxGeometry relative="1" as="geometry" />
        </mxCell>
        <mxCell id="XluoGH8vRkax0UuYclkj-2" value="kafka&lt;br&gt;" style="whiteSpace=wrap;html=1;" parent="1" vertex="1">
          <mxGeometry x="410" y="130" width="120" height="60" as="geometry" />
        </mxCell>
        <mxCell id="XluoGH8vRkax0UuYclkj-7" value="" style="edgeStyle=orthogonalEdgeStyle;rounded=0;orthogonalLoop=1;jettySize=auto;html=1;" parent="1" source="XluoGH8vRkax0UuYclkj-4" target="XluoGH8vRkax0UuYclkj-6" edge="1">
          <mxGeometry relative="1" as="geometry" />
        </mxCell>
        <mxCell id="XluoGH8vRkax0UuYclkj-4" value="flink等日志分析模块" style="whiteSpace=wrap;html=1;" parent="1" vertex="1">
          <mxGeometry x="410" y="270" width="120" height="60" as="geometry" />
        </mxCell>
        <mxCell id="XluoGH8vRkax0UuYclkj-6" value="MySQL" style="whiteSpace=wrap;html=1;" parent="1" vertex="1">
          <mxGeometry x="410" y="410" width="120" height="60" as="geometry" />
        </mxCell>
        <mxCell id="-E0du1wSxo-wRjcgoizt-2" value="isop" style="whiteSpace=wrap;html=1;" parent="1" vertex="1">
          <mxGeometry x="370" y="640" width="100" height="50" as="geometry" />
        </mxCell>
        <mxCell id="-E0du1wSxo-wRjcgoizt-3" value="vgs" style="whiteSpace=wrap;html=1;" parent="1" vertex="1">
          <mxGeometry x="650" y="740" width="100" height="50" as="geometry" />
        </mxCell>
        <mxCell id="-E0du1wSxo-wRjcgoizt-6" value="点播C2接口" style="text;html=1;align=center;verticalAlign=middle;resizable=0;points=[];autosize=1;strokeColor=none;" parent="1" vertex="1">
          <mxGeometry x="520" y="740" width="80" height="20" as="geometry" />
        </mxCell>
        <mxCell id="-E0du1wSxo-wRjcgoizt-10" value="oracle" style="shape=cylinder3;whiteSpace=wrap;html=1;boundedLbl=1;backgroundOutline=1;size=15;" parent="1" vertex="1">
          <mxGeometry x="280" y="680" width="60" height="80" as="geometry" />
        </mxCell>
        <mxCell id="-E0du1wSxo-wRjcgoizt-13" value="" style="edgeStyle=orthogonalEdgeStyle;rounded=0;orthogonalLoop=1;jettySize=auto;html=1;" parent="1" source="-E0du1wSxo-wRjcgoizt-11" target="-E0du1wSxo-wRjcgoizt-10" edge="1">
          <mxGeometry relative="1" as="geometry" />
        </mxCell>
        <mxCell id="-E0du1wSxo-wRjcgoizt-33" value="" style="edgeStyle=orthogonalEdgeStyle;rounded=0;orthogonalLoop=1;jettySize=auto;html=1;" parent="1" source="-E0du1wSxo-wRjcgoizt-11" edge="1">
          <mxGeometry relative="1" as="geometry">
            <mxPoint x="650" y="765" as="targetPoint" />
          </mxGeometry>
        </mxCell>
        <mxCell id="-E0du1wSxo-wRjcgoizt-11" value="datasyncservice" style="whiteSpace=wrap;html=1;" parent="1" vertex="1">
          <mxGeometry x="370" y="740" width="100" height="50" as="geometry" />
        </mxCell>
        <mxCell id="-E0du1wSxo-wRjcgoizt-12" value="" style="endArrow=classic;html=1;exitX=0;exitY=0.5;exitDx=0;exitDy=0;entryX=0.5;entryY=0;entryDx=0;entryDy=0;entryPerimeter=0;" parent="1" source="-E0du1wSxo-wRjcgoizt-2" target="-E0du1wSxo-wRjcgoizt-10" edge="1">
          <mxGeometry width="50" height="50" relative="1" as="geometry">
            <mxPoint x="310" y="630" as="sourcePoint" />
            <mxPoint x="360" y="580" as="targetPoint" />
          </mxGeometry>
        </mxCell>
        <mxCell id="teay3SoTK8Kt-8b2hUdI-2" value="" style="edgeStyle=orthogonalEdgeStyle;rounded=0;orthogonalLoop=1;jettySize=auto;html=1;" parent="1" source="-E0du1wSxo-wRjcgoizt-25" target="teay3SoTK8Kt-8b2hUdI-1" edge="1">
          <mxGeometry relative="1" as="geometry" />
        </mxCell>
        <mxCell id="-E0du1wSxo-wRjcgoizt-25" value="&#xa;&#xa;&lt;span style=&quot;color: rgb(0, 0, 0); font-family: helvetica; font-size: 12px; font-style: normal; font-weight: 400; letter-spacing: normal; text-align: center; text-indent: 0px; text-transform: none; word-spacing: 0px; background-color: rgb(248, 249, 250); display: inline; float: none;&quot;&gt;ctmsdispatcher&lt;/span&gt;&#xa;&#xa;" style="whiteSpace=wrap;html=1;" parent="1" vertex="1">
          <mxGeometry x="370" y="870" width="100" height="50" as="geometry" />
        </mxCell>
        <mxCell id="-E0du1wSxo-wRjcgoizt-26" value="" style="endArrow=classic;html=1;exitX=-0.021;exitY=0.42;exitDx=0;exitDy=0;exitPerimeter=0;entryX=0.5;entryY=1;entryDx=0;entryDy=0;entryPerimeter=0;" parent="1" source="-E0du1wSxo-wRjcgoizt-25" target="-E0du1wSxo-wRjcgoizt-10" edge="1">
          <mxGeometry width="50" height="50" relative="1" as="geometry">
            <mxPoint x="340" y="775" as="sourcePoint" />
            <mxPoint x="306" y="764" as="targetPoint" />
          </mxGeometry>
        </mxCell>
        <mxCell id="teay3SoTK8Kt-8b2hUdI-1" value="BI等下游节点" style="whiteSpace=wrap;html=1;" parent="1" vertex="1">
          <mxGeometry x="370" y="1000" width="100" height="50" as="geometry" />
        </mxCell>
        <mxCell id="teay3SoTK8Kt-8b2hUdI-3" value="轮询分发日志,发送soap消息" style="text;html=1;align=center;verticalAlign=middle;resizable=0;points=[];autosize=1;strokeColor=none;" parent="1" vertex="1">
          <mxGeometry x="360" y="950" width="160" height="20" as="geometry" />
        </mxCell>
        <mxCell id="lupAW_Fi4XNQCGxVksks-1" value="直播http接口,同步返回补充媒资" style="text;html=1;align=center;verticalAlign=middle;resizable=0;points=[];autosize=1;strokeColor=none;" vertex="1" parent="1">
          <mxGeometry x="470" y="775" width="180" height="20" as="geometry" />
        </mxCell>
        <mxCell id="lupAW_Fi4XNQCGxVksks-2" value="rabbitmq" style="whiteSpace=wrap;html=1;" vertex="1" parent="1">
          <mxGeometry x="510" y="865" width="100" height="50" as="geometry" />
        </mxCell>
        <mxCell id="lupAW_Fi4XNQCGxVksks-3" value="" style="endArrow=classic;html=1;entryX=1;entryY=0.5;entryDx=0;entryDy=0;exitX=0.5;exitY=1;exitDx=0;exitDy=0;" edge="1" parent="1" source="-E0du1wSxo-wRjcgoizt-3" target="lupAW_Fi4XNQCGxVksks-2">
          <mxGeometry width="50" height="50" relative="1" as="geometry">
            <mxPoint x="710" y="855" as="sourcePoint" />
            <mxPoint x="760" y="805" as="targetPoint" />
          </mxGeometry>
        </mxCell>
        <mxCell id="lupAW_Fi4XNQCGxVksks-4" value="生成点播补充媒资" style="text;html=1;align=center;verticalAlign=middle;resizable=0;points=[];autosize=1;strokeColor=none;" vertex="1" parent="1">
          <mxGeometry x="615" y="825" width="110" height="20" as="geometry" />
        </mxCell>
        <mxCell id="lupAW_Fi4XNQCGxVksks-5" value="" style="endArrow=classic;html=1;exitX=0.5;exitY=1;exitDx=0;exitDy=0;entryX=0;entryY=0.5;entryDx=0;entryDy=0;" edge="1" parent="1" source="-E0du1wSxo-wRjcgoizt-11" target="lupAW_Fi4XNQCGxVksks-2">
          <mxGeometry width="50" height="50" relative="1" as="geometry">
            <mxPoint x="660" y="925" as="sourcePoint" />
            <mxPoint x="710" y="875" as="targetPoint" />
          </mxGeometry>
        </mxCell>
        <mxCell id="lupAW_Fi4XNQCGxVksks-7" value="消费点播补充媒资" style="text;html=1;align=center;verticalAlign=middle;resizable=0;points=[];autosize=1;strokeColor=none;" vertex="1" parent="1">
          <mxGeometry x="405" y="825" width="110" height="20" as="geometry" />
        </mxCell>
        <mxCell id="lupAW_Fi4XNQCGxVksks-8" value="" style="endArrow=classic;html=1;exitX=0.42;exitY=0.998;exitDx=0;exitDy=0;exitPerimeter=0;" edge="1" parent="1" source="-E0du1wSxo-wRjcgoizt-10">
          <mxGeometry width="50" height="50" relative="1" as="geometry">
            <mxPoint x="360" y="870" as="sourcePoint" />
            <mxPoint x="250" y="890" as="targetPoint" />
          </mxGeometry>
        </mxCell>
        <mxCell id="lupAW_Fi4XNQCGxVksks-11" value="" style="edgeStyle=orthogonalEdgeStyle;rounded=0;orthogonalLoop=1;jettySize=auto;html=1;" edge="1" parent="1" source="lupAW_Fi4XNQCGxVksks-9" target="lupAW_Fi4XNQCGxVksks-10">
          <mxGeometry relative="1" as="geometry" />
        </mxCell>
        <mxCell id="lupAW_Fi4XNQCGxVksks-9" value="emc" style="whiteSpace=wrap;html=1;" vertex="1" parent="1">
          <mxGeometry x="200" y="890" width="100" height="50" as="geometry" />
        </mxCell>
        <mxCell id="lupAW_Fi4XNQCGxVksks-10" value="epg" style="whiteSpace=wrap;html=1;" vertex="1" parent="1">
          <mxGeometry x="200" y="1000" width="100" height="50" as="geometry" />
        </mxCell>
        <mxCell id="lupAW_Fi4XNQCGxVksks-12" value="静态化" style="text;html=1;align=center;verticalAlign=middle;resizable=0;points=[];autosize=1;strokeColor=none;" vertex="1" parent="1">
          <mxGeometry x="235" y="960" width="50" height="20" as="geometry" />
        </mxCell>
      </root>
    </mxGraphModel>
  </diagram>
</mxfile>
